<svg id="Capa_1" enable-background="new 0 0 512 512" height="512" viewBox="0 0 512 512" width="512" xmlns="http://www.w3.org/2000/svg"><g><path d="m497 21h-482c-8.284 0-15 6.716-15 15v30c0 8.284 6.716 15 15 15h482c8.284 0 15-6.716 15-15v-30c0-8.284-6.716-15-15-15z"/><path d="m76 476c0 8.284 6.716 15 15 15h24.189c6.456 0 12.189-4.131 14.23-10.257l6.581-19.743h-60z"/><path d="m382.581 480.743c2.042 6.125 7.774 10.257 14.23 10.257h24.189c8.284 0 15-6.716 15-15v-15h-60z"/><path d="m31 256h450v-145h-450zm195-115h60c8.284 0 15 6.716 15 15s-6.716 15-15 15h-60c-8.284 0-15-6.716-15-15s6.716-15 15-15z"/><path d="m31 416c0 8.284 6.716 15 15 15h420c8.284 0 15-6.716 15-15v-130h-450zm195-100h60c8.284 0 15 6.716 15 15s-6.716 15-15 15h-60c-8.284 0-15-6.716-15-15s6.716-15 15-15z"/></g></svg>